<svg width="16" height="16" viewBox="0 0 16 16" fill="none" xmlns="http://www.w3.org/2000/svg">
<path d="M14.843 1.61852C14.6531 1.46061 14.4241 1.35712 14.1801 1.31906C13.9361 1.281 13.6865 1.3098 13.4575 1.40238L1.51028 6.22595C1.25478 6.33107 1.03729 6.51141 0.88668 6.743C0.736067 6.97467 0.659458 7.2466 0.667014 7.52274C0.674574 7.79893 0.765947 8.06627 0.929 8.28934C1.09205 8.51234 1.31908 8.68053 1.57995 8.77153L3.99661 9.612L5.34361 14.0665C5.36192 14.1259 5.38849 14.1826 5.42253 14.2347C5.4277 14.2427 5.43499 14.2487 5.44048 14.2564C5.47981 14.3113 5.52735 14.3598 5.58143 14.4003C5.59681 14.412 5.61154 14.423 5.62798 14.4334C5.69127 14.4754 5.76136 14.5061 5.83513 14.5241L5.84303 14.5248L5.8475 14.5267C5.89185 14.5357 5.937 14.5403 5.98227 14.5404C5.98662 14.5404 5.99049 14.5383 5.9948 14.5382C6.06311 14.537 6.13082 14.5253 6.19553 14.5033C6.21058 14.4982 6.22348 14.4897 6.23809 14.4835C6.28634 14.4635 6.33205 14.4378 6.37428 14.4071C6.40809 14.3786 6.44192 14.3501 6.47576 14.3216L8.2772 12.3327L10.9641 14.4141C11.2006 14.5983 11.4917 14.6983 11.7915 14.6986C12.1057 14.6982 12.4101 14.5898 12.6538 14.3916C12.8975 14.1934 13.0657 13.9175 13.1301 13.6101L15.3052 2.93233C15.3545 2.69201 15.3375 2.44281 15.2561 2.21139C15.1747 1.97997 15.0319 1.77504 14.843 1.61852ZM6.24661 9.82427C6.15417 9.91634 6.09099 10.0337 6.06497 10.1615L5.85863 11.1641L5.33593 9.43547L8.04607 8.02414L6.24661 9.82427ZM11.7811 13.3601L8.606 10.9004C8.47313 10.7977 8.30653 10.7489 8.13927 10.7637C7.97207 10.7783 7.81653 10.8555 7.70367 10.9798L7.12667 11.6166L7.3306 10.6257L12.0526 5.90366C12.1653 5.7911 12.234 5.6419 12.2462 5.48308C12.2583 5.32425 12.2133 5.16632 12.1191 5.03788C12.0249 4.90943 11.8877 4.81897 11.7326 4.78289C11.5775 4.7468 11.4145 4.76748 11.2733 4.84116L4.49645 8.3696L2.01354 7.461L13.9992 2.66604L11.7811 13.3601Z" fill="black"/>
</svg>
